<?xml version="1.0" encoding="UTF-8" standalone="no"?>
<svg
   xmlns:dc="http://purl.org/dc/elements/1.1/"
   xmlns:cc="http://creativecommons.org/ns#"
   xmlns:rdf="http://www.w3.org/1999/02/22-rdf-syntax-ns#"
   xmlns:svg="http://www.w3.org/2000/svg"
   xmlns="http://www.w3.org/2000/svg"
   xmlns:sodipodi="http://sodipodi.sourceforge.net/DTD/sodipodi-0.dtd"
   xmlns:inkscape="http://www.inkscape.org/namespaces/inkscape"
   version="1.1"
   id="Layer_1"
   x="0px"
   y="0px"
   width="523.56812"
   height="523.56805"
   viewBox="0 0 523.56812 523.56805"
   enable-background="new 0 0 800 800"
   xml:space="preserve"
   sodipodi:docname="Round.svg"
   inkscape:version="1.0 (4035a4fb49, 2020-05-01)"><metadata
   id="metadata89"><rdf:RDF><cc:Work
       rdf:about=""><dc:format>image/svg+xml</dc:format><dc:type
         rdf:resource="http://purl.org/dc/dcmitype/StillImage" /><dc:title></dc:title></cc:Work></rdf:RDF></metadata><defs
   id="defs87" /><sodipodi:namedview
   inkscape:document-rotation="0"
   pagecolor="#ffffff"
   bordercolor="#666666"
   borderopacity="1"
   objecttolerance="10"
   gridtolerance="10"
   guidetolerance="10"
   inkscape:pageopacity="0"
   inkscape:pageshadow="2"
   inkscape:window-width="1366"
   inkscape:window-height="745"
   id="namedview85"
   showgrid="false"
   showguides="true"
   inkscape:guide-bbox="true"
   inkscape:zoom="0.5"
   inkscape:cx="891.18131"
   inkscape:cy="219.82375"
   inkscape:window-x="-8"
   inkscape:window-y="-8"
   inkscape:window-maximized="1"
   inkscape:current-layer="Layer_1" />









































<path
   fill-rule="evenodd"
   clip-rule="evenodd"
   d="M 261.69409,1.6631501e-5 C 406.28609,-0.05098337 523.57309,117.19702 523.56809,261.78802 c -0.006,144.597 -117.29,261.836 -261.881,261.78 C 117.09009,523.51102 -0.11691248,406.17402 8.7518823e-5,261.59202 0.11808752,117.13102 117.24309,0.05201663 261.69409,1.6631501e-5 Z"
   id="path2" /><path
   fill-rule="evenodd"
   clip-rule="evenodd"
   fill="#d6d4b6"
   d="m 261.78909,508.39202 c -135.997,0.004 -246.495002,-110.446 -246.615002,-246.51 -0.12,-136.06 110.757002,-246.897003 246.794002,-246.705003 136.09,0.193 246.533,110.756003 246.427,246.697003 -0.107,136.055 -110.604,246.513 -246.606,246.518 z"
   id="path4" /><path
   fill-rule="evenodd"
   clip-rule="evenodd"
   d="m 491.66709,261.90202 c -0.204,127.204 -103.397,230.209 -230.188,229.765 -127.202,-0.445 -229.781002,-103.213 -229.578002,-230.001 0.205,-127.202 103.401002,-230.208003 230.188002,-229.765003 127.204,0.446 229.783,103.214003 229.578,230.001003 z"
   id="path6" /><path
   fill-rule="evenodd"
   clip-rule="evenodd"
   fill="#2274c9"
   d="m 34.975088,261.76002 c 0.028,-125.542 101.578002,-226.986003 227.021002,-226.784003 125.48,0.202 226.625,101.451003 226.598,226.832003 -0.028,125.545 -101.573,226.985 -227.02,226.785 -125.478,-0.2 -226.627002,-101.452 -226.599002,-226.833 z"
   id="path8" /><path
   fill-rule="evenodd"
   clip-rule="evenodd"
   fill="#050505"
   d="m 261.81309,83.181017 c 98.765,0.011 178.55,79.779003 178.576,178.538003 0.026,98.933 -79.861,178.752 -178.821,178.669 -98.733,-0.084 -178.437002,-79.938 -178.389002,-178.726 0.048,-98.749 79.860002,-178.492003 178.634002,-178.481003 z"
   id="path10" /><path
   fill-rule="evenodd"
   clip-rule="evenodd"
   fill="#fcfcfd"
   d="m 240.82809,462.51802 c 0.06,5.89 -4.713,10.691 -10.649,10.711 -6.066,0.02 -11.146,-4.881 -11.148,-10.755 -0.001,-5.736 4.609,-10.304 10.508,-10.409 6.282,-0.112 11.227,4.467 11.289,10.453 z"
   id="path16" /><path
   fill-rule="evenodd"
   clip-rule="evenodd"
   fill="#fbfcfd"
   d="m 283.82009,463.28802 c 3.23,1.198 5.074,3.096 4.532,6.325 -0.581,3.467 -3.272,4.314 -6.303,4.75 -7.138,1.027 -7.124,1.066 -7.629,-6.181 -0.26,-3.728 -0.418,-7.471 -0.888,-11.174 -0.258,-2.03 0.37,-2.665 2.293,-2.653 1.486,0.009 2.977,-0.389 4.461,-0.361 2.209,0.04 4.334,0.662 5.24,2.898 0.892,2.196 0.855,4.418 -1.706,6.396 z"
   id="path18" /><path
   fill-rule="evenodd"
   clip-rule="evenodd"
   fill="#fcfdfd"
   d="m 201.42609,466.06302 c -6.146,-0.079 -11.012,-4.924 -10.938,-10.887 0.071,-5.716 4.788,-10.303 10.62,-10.328 5.984,-0.025 11.136,4.956 11.156,10.791 0.022,5.944 -4.72,10.504 -10.838,10.424 z"
   id="path20" /><path
   fill-rule="evenodd"
   clip-rule="evenodd"
   fill="#fbfcfd"
   d="m 315.82309,467.56902 c -2.331,2.186 -3.565,0.347 -4.311,-1.254 -1.783,-3.828 -4.587,-2.03 -7.275,-1.764 -2.955,0.293 -3.96,1.972 -4.159,4.611 -0.071,0.952 0.095,2.098 -0.971,2.657 -0.519,0.271 -1.169,0.371 -1.757,0.36 -0.115,-0.002 -0.376,-0.896 -0.298,-1.328 1.148,-6.359 2.233,-12.732 3.587,-19.049 0.448,-2.093 1.894,-2.104 3.155,-0.415 4.02,5.38 8.014,10.776 12.029,16.182 z"
   id="path28" /><path
   fill-rule="evenodd"
   clip-rule="evenodd"
   fill="#f7fafc"
   d="m 255.16109,466.19502 c 0,-1.122 -0.015,-2.245 0.002,-3.368 0.078,-5.006 0.082,-5.007 -4.87,-5.395 -1.084,-0.085 -2.465,0.184 -2.433,-1.521 0.035,-1.825 1.524,-1.288 2.522,-1.28 4.242,0.033 8.483,0.105 12.722,0.263 0.997,0.037 2.516,-0.317 2.552,1.405 0.04,1.879 -1.508,1.231 -2.474,1.272 -4.987,0.207 -4.992,0.182 -5.06,5.276 -0.047,3.493 -0.08,6.985 -0.124,10.479 -0.013,1.032 -0.026,2.036 -1.508,2.025 -1.487,-0.011 -1.466,-1.013 -1.465,-2.047 0.003,-2.37 0.001,-4.741 0.001,-7.111 0.045,0.002 0.09,0.002 0.135,0.002 z"
   id="path30" /><path
   fill-rule="evenodd"
   clip-rule="evenodd"
   fill="#fafbfd"
   d="m 183.22609,447.00502 c -0.248,1.863 -0.858,2.145 -2.139,1.665 -2.063,-0.773 -4.131,-2.99 -6.098,-2.145 -1.909,0.821 -2.098,3.77 -3.151,5.728 -0.483,0.899 -0.783,1.937 -2.164,1.257 -1.266,-0.623 -0.968,-1.48 -0.502,-2.483 2.31,-4.98 4.628,-9.959 6.833,-14.986 0.578,-1.317 1.122,-1.723 2.489,-1.045 2.458,1.219 4.996,2.273 7.476,3.448 0.613,0.291 1.445,0.515 1.004,1.617 -0.441,1.101 -1.111,1.208 -2.057,0.779 -1.137,-0.516 -2.34,-0.923 -3.397,-1.568 -2.022,-1.235 -3.327,-1.433 -4.473,1.278 -0.979,2.315 -0.668,3.325 1.639,4.15 1.658,0.593 3.434,1.193 4.54,2.305 z"
   id="path32" /><path
   fill-rule="evenodd"
   clip-rule="evenodd"
   fill="#f9fbfd"
   d="m 339.08209,438.11802 c 1.021,-0.067 1.132,0.956 1.47,1.69 1.712,3.726 3.606,7.387 5.016,11.224 1.022,2.785 2.297,3.042 4.604,1.607 1.255,-0.78 2.693,-1.272 4.066,-1.851 0.755,-0.316 1.57,-0.958 2.137,0.353 0.459,1.063 0.085,1.57 -0.887,1.994 -2.848,1.238 -5.714,2.449 -8.481,3.852 -1.531,0.775 -1.943,-0.054 -2.439,-1.156 -2.241,-4.986 -4.468,-9.979 -6.777,-14.932 -0.679,-1.451 -0.512,-2.339 1.291,-2.781 z"
   id="path36" /><path
   fill-rule="evenodd"
   clip-rule="evenodd"
   fill="#fafbfd"
   d="m 325.80009,465.02602 c -1.271,0.162 -1.514,-0.656 -1.798,-1.531 -1.689,-5.201 -3.432,-10.387 -5.103,-15.595 -0.288,-0.896 -0.7,-1.938 0.772,-2.42 1.471,-0.482 1.708,0.566 2.019,1.486 1.032,3.063 2.021,6.141 3.025,9.213 1.888,5.77 1.888,5.77 7.486,3.93 0.827,-0.271 1.659,-0.53 2.485,-0.805 0.683,-0.227 1.162,-0.11 1.457,0.639 0.309,0.786 0.399,1.532 -0.519,1.847 -3.29,1.126 -6.606,2.183 -9.824,3.236 z"
   id="path38" /><g
   aria-label="D"
   transform="matrix(0.91125276,0,0,1.0433401,-101.90711,-139.4185)"
   id="text944"
   style="font-style:normal;font-weight:normal;font-size:295.803px;line-height:1.25;font-family:sans-serif;fill:#000000;fill-opacity:1;stroke:#000000;stroke-width:5;stroke-linejoin:round;stroke-miterlimit:4;stroke-dasharray:none;stroke-opacity:1"><path
     d="m 513.31218,387.50891 q 0,29.32031 -12.85472,53.1521 -12.71028,23.83178 -33.94224,36.97538 -14.73237,9.0994 -32.93119,13.14359 -18.05439,4.04418 -47.66357,4.04418 H 331.61287 V 279.76035 h 53.72985 q 31.48684,0 49.97453,4.62192 18.63212,4.47749 31.48684,12.42142 21.95413,13.72133 34.23111,36.54207 12.27698,22.82074 12.27698,54.16315 z m -29.89806,-0.43331 q 0,-25.27614 -8.81053,-42.60834 -8.81054,-17.33221 -26.28719,-27.29823 -12.71028,-7.22175 -27.00935,-9.96602 -14.29907,-2.8887 -34.23111,-2.8887 H 360.21102 V 470.2702 h 26.86492 q 20.65421,0 35.96433,-3.03314 15.45455,-3.03314 28.30927,-11.26593 16.03229,-10.25489 23.97622,-27.00936 8.08836,-16.75447 8.08836,-41.88617 z"
     style="font-style:normal;font-variant:normal;font-weight:normal;font-stretch:normal;font-size:295.803px;font-family:sans-serif;-inkscape-font-specification:sans-serif;fill:#ffffff;stroke:#000000;stroke-width:5;stroke-linejoin:round;stroke-miterlimit:4;stroke-dasharray:none;stroke-opacity:1"
     id="path946" /></g><path
   fill-rule="evenodd"
   clip-rule="evenodd"
   fill="#2374c9"
   d="m 229.68209,470.32702 c -4.307,-0.146 -7.797,-3.893 -7.566,-8.12 0.222,-4.077 3.862,-7.533 7.904,-7.503 4.206,0.031 7.811,3.776 7.735,8.035 -0.077,4.272 -3.762,7.736 -8.073,7.588 z"
   id="path50" /><path
   fill-rule="evenodd"
   clip-rule="evenodd"
   fill="#2374ca"
   d="m 277.34809,467.94602 c -0.868,-2.718 1.361,-2.308 3.006,-2.363 2.251,-0.077 4.853,-0.316 4.805,3.036 -0.046,3.224 -2.705,2.855 -4.881,3.249 -3.427,0.621 -2.71,-1.821 -2.93,-3.922 z"
   id="path52" /><path
   fill-rule="evenodd"
   clip-rule="evenodd"
   fill="#2475ca"
   d="m 279.07609,456.77702 c 2.076,-0.101 3.751,0.188 3.814,2.578 0.076,2.881 -1.948,3.351 -4.203,3.508 -2.914,0.202 -1.661,-2.084 -1.971,-3.371 -0.504,-2.09 0.403,-3.027 2.36,-2.715 z"
   id="path54" /><path
   fill-rule="evenodd"
   clip-rule="evenodd"
   fill="#2374c9"
   d="m 201.51709,447.76202 c 4.27,0.065 7.815,3.775 7.668,8.026 -0.14,4.038 -3.82,7.601 -7.828,7.577 -4.281,-0.024 -7.864,-3.663 -7.818,-7.938 0.046,-4.363 3.554,-7.733 7.978,-7.665 z"
   id="path56" /><path
   fill-rule="evenodd"
   clip-rule="evenodd"
   fill="#317dcd"
   d="m 307.40809,461.01702 c -2.072,0.616 -4.522,2.084 -5.428,0.951 -1.339,-1.675 0.568,-4.086 0.48,-6.822 2.322,1.689 3.331,3.751 4.948,5.871 z"
   id="path64" /><path
   fill-rule="evenodd"
   clip-rule="evenodd"
   fill="#fefefe"
   d="m 340.62288,305.31308 c -29.766,27.396 -55.61772,47.66902 -84.82472,74.55102 2.525,2.097 3.60193,2.61092 6.13493,4.71492 -6.826,3.063 -13.397,6.013 -20.717,9.299 1.465,-7.667 2.822,-14.768 4.227,-22.117 2.26666,1.68936 3.869,2.97067 5.698,4.32767 9.76642,-12.42432 30.31306,-34.26785 38.129,-45.93967 l -90.839,2 c 30.05,-40.203 59.57,-79.696 89.636,-119.919 h -89.97 c 3.671,-6.148 7.019,-11.753 10.365,-17.358 0.579,-0.971 1.544,-0.644 2.361,-0.645 47.873,-0.01 95.747,-0.003 143.619,0.013 0.207,0 0.413,0.17 0.952,0.407 -26.735,36.154 -53.416,72.234 -80.495,108.852 z"
   id="path66"
   style="stroke:#000000;stroke-width:3.1;stroke-linecap:round;stroke-linejoin:round;stroke-miterlimit:4;stroke-dasharray:none;stroke-opacity:1"
   sodipodi:nodetypes="ccccccccccccsccc" /><g
   style="font-style:normal;font-weight:normal;font-size:32px;line-height:1.25;font-family:sans-serif;fill:#ffffff;fill-opacity:1;stroke:none"
   id="text127"
   transform="rotate(-26.227326,235.24176,253.34269)"
   aria-label="D R I B B L Z"><path
     id="path98"
     style="font-style:normal;font-variant:normal;font-weight:normal;font-stretch:normal;font-size:32px;font-family:Corbel;-inkscape-font-specification:Corbel"
     d="m 282.00929,73.492836 q -0.10816,1.824923 -0.65572,3.404668 -0.54755,1.579745 -1.54454,2.819802 -0.98047,1.225385 -2.40854,2.079887 -1.41246,0.855426 -3.26789,1.261982 -1.06261,0.234413 -2.28662,0.287084 -1.22308,0.03707 -2.64247,-0.04706 l -4.72608,-0.280122 1.23698,-20.869623 4.77287,0.282895 q 1.41939,0.08413 2.6286,0.281021 1.21015,0.181294 2.23762,0.53959 1.79442,0.622888 3.09687,1.623579 1.31804,1.001616 2.13222,2.31772 0.8307,1.301431 1.17406,2.902677 0.35989,1.586573 0.25264,3.395897 z m -2.68279,-0.159013 q 0.17843,-3.010342 -1.02083,-4.959715 -1.19926,-1.949372 -3.60186,-2.8744 -0.9183,-0.351824 -2.06605,-0.52942 -1.14775,-0.177596 -2.59833,-0.263575 l -1.91851,-0.113713 -0.96517,16.283922 1.9185,0.113713 q 1.45058,0.08598 2.61128,0.04521 1.1607,-0.04077 2.11412,-0.281655 2.49505,-0.634736 3.92081,-2.506781 1.42577,-1.872046 1.60604,-4.913583 z" /><path
     id="path100"
     style="font-style:normal;font-variant:normal;font-weight:normal;font-stretch:normal;font-size:32px;font-family:Corbel;-inkscape-font-specification:Corbel"
     d="m 296.56456,77.685015 -1.7858,8.47004 -2.49209,-0.525424 4.31299,-20.456524 5.30525,1.118541 q 1.34542,0.283665 2.25548,0.587318 0.92857,0.291588 1.66317,0.670029 2.01795,1.032262 2.85277,2.677376 0.83804,1.629824 0.39643,3.724401 -0.2611,1.2384 -0.86491,2.133078 -0.60382,0.894678 -1.4739,1.461753 -0.87008,0.567075 -1.97585,0.812993 -1.09048,0.249141 -2.35872,0.205309 l -0.0129,0.06115 4.83742,10.153894 -3.13422,-0.66081 -4.51322,-9.798107 z m 2.05334,-9.739018 -1.57949,7.491552 2.46151,0.518977 q 1.14666,0.24176 1.97309,0.336159 0.82643,0.0944 1.51047,0.03103 1.38336,-0.123516 2.27039,-0.846703 0.88702,-0.723187 1.18358,-2.129765 0.26193,-1.318067 -0.22787,-2.251698 -0.48658,-0.948919 -1.57439,-1.545547 -0.51495,-0.284222 -1.26327,-0.52184 -0.74833,-0.237617 -1.92557,-0.485824 z" /><path
     id="path102"
     style="font-style:normal;font-variant:normal;font-weight:normal;font-stretch:normal;font-size:32px;font-family:Corbel;-inkscape-font-specification:Corbel"
     d="m 316.88453,91.800595 6.5671,-19.848034 2.41796,0.800028 -6.5671,19.848034 z" /><path
     id="path104"
     style="font-style:normal;font-variant:normal;font-weight:normal;font-stretch:normal;font-size:32px;font-family:Corbel;-inkscape-font-specification:Corbel"
     d="m 344.25448,91.119131 q 0.82111,0.532945 1.35968,1.193813 0.55277,0.667403 0.80115,1.435465 0.26911,0.760406 0.19891,1.622591 -0.0637,0.847992 -0.49502,1.784693 -0.30718,0.667045 -0.84573,1.313552 -0.53202,0.632314 -1.32062,1.112066 -0.76787,0.472099 -1.78803,0.707589 -1.00597,0.24204 -2.28291,0.10126 -0.98226,-0.1083 -2.07059,-0.471863 -1.08834,-0.363566 -2.53597,-1.030207 l -4.91058,-2.261351 8.74476,-18.989482 4.74028,2.182922 q 0.65285,0.300642 1.1649,0.570848 0.53278,0.262549 0.95313,0.507733 0.43455,0.251719 0.78507,0.499145 0.35705,0.233234 0.65846,0.475245 0.78302,0.653021 1.31076,1.412114 0.54847,0.751437 0.79144,1.568612 0.24296,0.817175 0.17276,1.67936 -0.056,0.868721 -0.45469,1.73446 -0.32024,0.695429 -0.78466,1.25566 -0.45022,0.566768 -1.06758,0.936152 -0.60317,0.37592 -1.38113,0.53373 -0.76377,0.164345 -1.71764,0.06912 z m -3.09602,-2.578281 q 0.68123,0.313713 1.20411,0.485693 0.52942,0.157787 0.98563,0.213054 1.22782,0.135367 2.05676,-0.394619 0.84312,-0.52345 1.31369,-1.545305 0.48364,-1.050241 0.27989,-1.95257 -0.20375,-0.90233 -1.14624,-1.732005 -0.46742,-0.404473 -1.1509,-0.788028 -0.67695,-0.397747 -1.64203,-0.842174 l -2.59722,-1.196032 -2.82342,6.131133 z m -4.48048,0.465435 -3.03909,6.599484 2.79591,1.287532 q 0.99347,0.457499 1.88423,0.764486 0.89729,0.292795 1.58488,0.3686 0.75088,0.08776 1.35536,-0.02953 0.61102,-0.131477 1.06367,-0.404687 0.47339,-0.280866 0.79607,-0.682739 0.33687,-0.395337 0.55255,-0.863687 0.24836,-0.539313 0.3363,-1.066484 0.0945,-0.541365 -0.0336,-1.047618 -0.10738,-0.513909 -0.45921,-1.019972 -0.33764,-0.499527 -0.97537,-0.982428 -0.38002,-0.295418 -0.91392,-0.592888 -0.5197,-0.290933 -1.32867,-0.663468 z" /><path
     id="path106"
     style="font-style:normal;font-variant:normal;font-weight:normal;font-stretch:normal;font-size:32px;font-family:Corbel;-inkscape-font-specification:Corbel"
     d="m 367.6352,104.55098 q 0.73684,0.64445 1.1758,1.37529 0.45208,0.73932 0.58854,1.53493 0.15807,0.79098 -0.0342,1.63437 -0.18379,0.83029 -0.74415,1.69601 -0.39905,0.61649 -1.02418,1.17971 -0.61665,0.5501 -1.46553,0.91265 -0.82728,0.35793 -1.87058,0.44574 -1.03019,0.0963 -2.27406,-0.22491 -0.95683,-0.24708 -1.98229,-0.76194 -1.02546,-0.51486 -2.36339,-1.38087 l -4.53847,-2.93766 11.36006,-17.550502 4.38107,2.83577 q 0.60338,0.390556 1.07173,0.730932 0.48995,0.335749 0.87111,0.638301 0.39427,0.311041 0.70597,0.605865 0.3202,0.281707 0.58407,0.564176 0.68203,0.75788 1.09629,1.584396 0.43586,0.821889 0.55997,1.665337 0.1241,0.843447 -0.0682,1.686845 -0.17916,0.85189 -0.69707,1.65203 -0.41603,0.64273 -0.95549,1.13111 -0.52636,0.49687 -1.19003,0.77456 -0.65056,0.28619 -1.44306,0.3316 -0.77939,0.0539 -1.70998,-0.17621 z m -2.69728,-2.99293 q 0.62962,0.40754 1.12267,0.65223 0.50155,0.23158 0.94524,0.35125 1.19603,0.30885 2.09199,-0.0977 0.90908,-0.39803 1.52039,-1.34245 0.62828,-0.97066 0.55512,-1.89281 -0.0732,-0.92215 -0.8879,-1.877595 -0.40505,-0.46692 -1.02694,-0.943904 -0.61339,-0.490101 -1.50535,-1.067444 l -2.4004,-1.55373 -3.66783,5.666531 z m -4.50108,-0.17741 -3.94801,6.09939 2.58405,1.6726 q 0.91818,0.59432 1.75614,1.02504 0.84645,0.4176 1.51623,0.59056 0.73074,0.1938 1.34576,0.1638 0.62351,-0.0431 1.11046,-0.24908 0.50856,-0.21058 0.88519,-0.5624 0.38974,-0.34333 0.66992,-0.77619 0.32263,-0.49845 0.48476,-1.00772 0.17062,-0.52239 0.11591,-1.04173 -0.0331,-0.52396 -0.30927,-1.07497 -0.26305,-0.54253 -0.82551,-1.11133 -0.33407,-0.34653 -0.82017,-0.717 -0.47297,-0.36198 -1.22064,-0.84593 z" /><path
     id="path108"
     style="font-style:normal;font-variant:normal;font-weight:normal;font-stretch:normal;font-size:32px;font-family:Corbel;-inkscape-font-specification:Corbel"
     d="m 389.52416,108.38073 -12.13386,14.10951 7.73594,6.65274 -1.49763,1.74148 -9.66697,-8.31338 13.6315,-15.85098 z" /><path
     id="path110"
     style="font-style:normal;font-variant:normal;font-weight:normal;font-stretch:normal;font-size:32px;font-family:Corbel;-inkscape-font-specification:Corbel"
     d="m 415.43681,134.15209 -1.18588,1.06478 -20.76157,2.3461 8.19459,9.12657 -1.70905,1.53453 -10.42853,-11.61458 1.18587,-1.06478 20.78245,-2.32284 -7.93361,-8.83592 1.70905,-1.53453 z" /></g><path
   id="path949"
   d="M 261.69409,1.6631501e-5 C 406.28609,-0.05098337 523.57309,117.19702 523.56809,261.78802 c -0.006,144.597 -117.29,261.836 -261.881,261.78 C 117.09009,523.51102 -0.11691248,406.17402 8.7518823e-5,261.59202 0.11808752,117.13102 117.24309,0.05201663 261.69409,1.6631501e-5 Z"
   clip-rule="evenodd"
   fill-rule="evenodd" /><path
   id="path951"
   d="m 261.78909,508.39202 c -135.997,0.004 -246.495002,-110.446 -246.615002,-246.51 -0.12,-136.06 110.757002,-246.897003 246.794002,-246.705003 136.09,0.193 246.533,110.756003 246.427,246.697003 -0.107,136.055 -110.604,246.513 -246.606,246.518 z"
   fill="#d6d4b6"
   clip-rule="evenodd"
   fill-rule="evenodd" /><path
   id="path953"
   d="m 491.66709,261.90202 c -0.204,127.204 -103.397,230.209 -230.188,229.765 -127.202,-0.445 -229.781002,-103.213 -229.578002,-230.001 0.205,-127.202 103.401002,-230.208003 230.188002,-229.765003 127.204,0.446 229.783,103.214003 229.578,230.001003 z"
   clip-rule="evenodd"
   fill-rule="evenodd" /><path
   id="path955"
   d="m 34.975088,261.76002 c 0.028,-125.542 101.578002,-226.986003 227.021002,-226.784003 125.48,0.202 226.625,101.451003 226.598,226.832003 -0.028,125.545 -101.573,226.985 -227.02,226.785 -125.478,-0.2 -226.627002,-101.452 -226.599002,-226.833 z"
   fill="#2274c9"
   clip-rule="evenodd"
   fill-rule="evenodd" /><path
   id="path957"
   d="m 261.81309,83.181017 c 98.765,0.011 178.55,79.779003 178.576,178.538003 0.026,98.933 -79.861,178.752 -178.821,178.669 -98.733,-0.084 -178.437002,-79.938 -178.389002,-178.726 0.048,-98.749 79.860002,-178.492003 178.634002,-178.481003 z"
   fill="#050505"
   clip-rule="evenodd"
   fill-rule="evenodd" /><path
   id="path959"
   d="m 240.82809,462.51802 c 0.06,5.89 -4.713,10.691 -10.649,10.711 -6.066,0.02 -11.146,-4.881 -11.148,-10.755 -0.001,-5.736 4.609,-10.304 10.508,-10.409 6.282,-0.112 11.227,4.467 11.289,10.453 z"
   fill="#fcfcfd"
   clip-rule="evenodd"
   fill-rule="evenodd" /><path
   id="path961"
   d="m 283.82009,463.28802 c 3.23,1.198 5.074,3.096 4.532,6.325 -0.581,3.467 -3.272,4.314 -6.303,4.75 -7.138,1.027 -7.124,1.066 -7.629,-6.181 -0.26,-3.728 -0.418,-7.471 -0.888,-11.174 -0.258,-2.03 0.37,-2.665 2.293,-2.653 1.486,0.009 2.977,-0.389 4.461,-0.361 2.209,0.04 4.334,0.662 5.24,2.898 0.892,2.196 0.855,4.418 -1.706,6.396 z"
   fill="#fbfcfd"
   clip-rule="evenodd"
   fill-rule="evenodd" /><path
   id="path963"
   d="m 201.42609,466.06302 c -6.146,-0.079 -11.012,-4.924 -10.938,-10.887 0.071,-5.716 4.788,-10.303 10.62,-10.328 5.984,-0.025 11.136,4.956 11.156,10.791 0.022,5.944 -4.72,10.504 -10.838,10.424 z"
   fill="#fcfdfd"
   clip-rule="evenodd"
   fill-rule="evenodd" /><path
   id="path965"
   d="m 315.82309,467.56902 c -2.331,2.186 -3.565,0.347 -4.311,-1.254 -1.783,-3.828 -4.587,-2.03 -7.275,-1.764 -2.955,0.293 -3.96,1.972 -4.159,4.611 -0.071,0.952 0.095,2.098 -0.971,2.657 -0.519,0.271 -1.169,0.371 -1.757,0.36 -0.115,-0.002 -0.376,-0.896 -0.298,-1.328 1.148,-6.359 2.233,-12.732 3.587,-19.049 0.448,-2.093 1.894,-2.104 3.155,-0.415 4.02,5.38 8.014,10.776 12.029,16.182 z"
   fill="#fbfcfd"
   clip-rule="evenodd"
   fill-rule="evenodd" /><path
   id="path967"
   d="m 255.16109,466.19502 c 0,-1.122 -0.015,-2.245 0.002,-3.368 0.078,-5.006 0.082,-5.007 -4.87,-5.395 -1.084,-0.085 -2.465,0.184 -2.433,-1.521 0.035,-1.825 1.524,-1.288 2.522,-1.28 4.242,0.033 8.483,0.105 12.722,0.263 0.997,0.037 2.516,-0.317 2.552,1.405 0.04,1.879 -1.508,1.231 -2.474,1.272 -4.987,0.207 -4.992,0.182 -5.06,5.276 -0.047,3.493 -0.08,6.985 -0.124,10.479 -0.013,1.032 -0.026,2.036 -1.508,2.025 -1.487,-0.011 -1.466,-1.013 -1.465,-2.047 0.003,-2.37 0.001,-4.741 0.001,-7.111 0.045,0.002 0.09,0.002 0.135,0.002 z"
   fill="#f7fafc"
   clip-rule="evenodd"
   fill-rule="evenodd" /><path
   id="path969"
   d="m 183.22609,447.00502 c -0.248,1.863 -0.858,2.145 -2.139,1.665 -2.063,-0.773 -4.131,-2.99 -6.098,-2.145 -1.909,0.821 -2.098,3.77 -3.151,5.728 -0.483,0.899 -0.783,1.937 -2.164,1.257 -1.266,-0.623 -0.968,-1.48 -0.502,-2.483 2.31,-4.98 4.628,-9.959 6.833,-14.986 0.578,-1.317 1.122,-1.723 2.489,-1.045 2.458,1.219 4.996,2.273 7.476,3.448 0.613,0.291 1.445,0.515 1.004,1.617 -0.441,1.101 -1.111,1.208 -2.057,0.779 -1.137,-0.516 -2.34,-0.923 -3.397,-1.568 -2.022,-1.235 -3.327,-1.433 -4.473,1.278 -0.979,2.315 -0.668,3.325 1.639,4.15 1.658,0.593 3.434,1.193 4.54,2.305 z"
   fill="#fafbfd"
   clip-rule="evenodd"
   fill-rule="evenodd" /><path
   id="path971"
   d="m 339.08209,438.11802 c 1.021,-0.067 1.132,0.956 1.47,1.69 1.712,3.726 3.606,7.387 5.016,11.224 1.022,2.785 2.297,3.042 4.604,1.607 1.255,-0.78 2.693,-1.272 4.066,-1.851 0.755,-0.316 1.57,-0.958 2.137,0.353 0.459,1.063 0.085,1.57 -0.887,1.994 -2.848,1.238 -5.714,2.449 -8.481,3.852 -1.531,0.775 -1.943,-0.054 -2.439,-1.156 -2.241,-4.986 -4.468,-9.979 -6.777,-14.932 -0.679,-1.451 -0.512,-2.339 1.291,-2.781 z"
   fill="#f9fbfd"
   clip-rule="evenodd"
   fill-rule="evenodd" /><path
   id="path973"
   d="m 325.80009,465.02602 c -1.271,0.162 -1.514,-0.656 -1.798,-1.531 -1.689,-5.201 -3.432,-10.387 -5.103,-15.595 -0.288,-0.896 -0.7,-1.938 0.772,-2.42 1.471,-0.482 1.708,0.566 2.019,1.486 1.032,3.063 2.021,6.141 3.025,9.213 1.888,5.77 1.888,5.77 7.486,3.93 0.827,-0.271 1.659,-0.53 2.485,-0.805 0.683,-0.227 1.162,-0.11 1.457,0.639 0.309,0.786 0.399,1.532 -0.519,1.847 -3.29,1.126 -6.606,2.183 -9.824,3.236 z"
   fill="#fafbfd"
   clip-rule="evenodd"
   fill-rule="evenodd" /><g
   style="font-style:normal;font-weight:normal;font-size:295.803px;line-height:1.25;font-family:sans-serif;fill:#000000;fill-opacity:1;stroke:#000000;stroke-width:5;stroke-linejoin:round;stroke-miterlimit:4;stroke-dasharray:none;stroke-opacity:1"
   id="g977"
   transform="matrix(0.91125276,0,0,1.0433401,-101.90711,-139.4185)"
   aria-label="D"><path
     id="path975"
     style="font-style:normal;font-variant:normal;font-weight:normal;font-stretch:normal;font-size:295.803px;font-family:sans-serif;-inkscape-font-specification:sans-serif;fill:#ffffff;stroke:#000000;stroke-width:5;stroke-linejoin:round;stroke-miterlimit:4;stroke-dasharray:none;stroke-opacity:1"
     d="m 513.31218,387.50891 q 0,29.32031 -12.85472,53.1521 -12.71028,23.83178 -33.94224,36.97538 -14.73237,9.0994 -32.93119,13.14359 -18.05439,4.04418 -47.66357,4.04418 H 331.61287 V 279.76035 h 53.72985 q 31.48684,0 49.97453,4.62192 18.63212,4.47749 31.48684,12.42142 21.95413,13.72133 34.23111,36.54207 12.27698,22.82074 12.27698,54.16315 z m -29.89806,-0.43331 q 0,-25.27614 -8.81053,-42.60834 -8.81054,-17.33221 -26.28719,-27.29823 -12.71028,-7.22175 -27.00935,-9.96602 -14.29907,-2.8887 -34.23111,-2.8887 H 360.21102 V 470.2702 h 26.86492 q 20.65421,0 35.96433,-3.03314 15.45455,-3.03314 28.30927,-11.26593 16.03229,-10.25489 23.97622,-27.00936 8.08836,-16.75447 8.08836,-41.88617 z" /></g><path
   id="path979"
   d="m 229.68209,470.32702 c -4.307,-0.146 -7.797,-3.893 -7.566,-8.12 0.222,-4.077 3.862,-7.533 7.904,-7.503 4.206,0.031 7.811,3.776 7.735,8.035 -0.077,4.272 -3.762,7.736 -8.073,7.588 z"
   fill="#2374c9"
   clip-rule="evenodd"
   fill-rule="evenodd" /><path
   id="path981"
   d="m 277.34809,467.94602 c -0.868,-2.718 1.361,-2.308 3.006,-2.363 2.251,-0.077 4.853,-0.316 4.805,3.036 -0.046,3.224 -2.705,2.855 -4.881,3.249 -3.427,0.621 -2.71,-1.821 -2.93,-3.922 z"
   fill="#2374ca"
   clip-rule="evenodd"
   fill-rule="evenodd" /><path
   id="path983"
   d="m 279.07609,456.77702 c 2.076,-0.101 3.751,0.188 3.814,2.578 0.076,2.881 -1.948,3.351 -4.203,3.508 -2.914,0.202 -1.661,-2.084 -1.971,-3.371 -0.504,-2.09 0.403,-3.027 2.36,-2.715 z"
   fill="#2475ca"
   clip-rule="evenodd"
   fill-rule="evenodd" /><path
   id="path985"
   d="m 201.51709,447.76202 c 4.27,0.065 7.815,3.775 7.668,8.026 -0.14,4.038 -3.82,7.601 -7.828,7.577 -4.281,-0.024 -7.864,-3.663 -7.818,-7.938 0.046,-4.363 3.554,-7.733 7.978,-7.665 z"
   fill="#2374c9"
   clip-rule="evenodd"
   fill-rule="evenodd" /><path
   id="path987"
   d="m 307.40809,461.01702 c -2.072,0.616 -4.522,2.084 -5.428,0.951 -1.339,-1.675 0.568,-4.086 0.48,-6.822 2.322,1.689 3.331,3.751 4.948,5.871 z"
   fill="#317dcd"
   clip-rule="evenodd"
   fill-rule="evenodd" /><path
   sodipodi:nodetypes="ccccccccccccsccc"
   style="stroke:#000000;stroke-width:3.1;stroke-linecap:round;stroke-linejoin:round;stroke-miterlimit:4;stroke-dasharray:none;stroke-opacity:1"
   id="path989"
   d="m 340.62288,305.31308 c -29.766,27.396 -55.61772,47.66902 -84.82472,74.55102 2.525,2.097 3.60193,2.61092 6.13493,4.71492 -6.826,3.063 -13.397,6.013 -20.717,9.299 1.465,-7.667 2.822,-14.768 4.227,-22.117 2.26666,1.68936 3.869,2.97067 5.698,4.32767 9.76642,-12.42432 30.31306,-34.26785 38.129,-45.93967 l -90.839,2 c 30.05,-40.203 59.57,-79.696 89.636,-119.919 h -89.97 c 3.671,-6.148 7.019,-11.753 10.365,-17.358 0.579,-0.971 1.544,-0.644 2.361,-0.645 47.873,-0.01 95.747,-0.003 143.619,0.013 0.207,0 0.413,0.17 0.952,0.407 -26.735,36.154 -53.416,72.234 -80.495,108.852 z"
   fill="#fefefe"
   clip-rule="evenodd"
   fill-rule="evenodd" /><g
   aria-label="D R I B B L Z"
   transform="rotate(-26.227326,235.24176,253.34269)"
   id="g1005"
   style="font-style:normal;font-weight:normal;font-size:32px;line-height:1.25;font-family:sans-serif;fill:#ffffff;fill-opacity:1;stroke:none"><path
     d="m 282.00929,73.492836 q -0.10816,1.824923 -0.65572,3.404668 -0.54755,1.579745 -1.54454,2.819802 -0.98047,1.225385 -2.40854,2.079887 -1.41246,0.855426 -3.26789,1.261982 -1.06261,0.234413 -2.28662,0.287084 -1.22308,0.03707 -2.64247,-0.04706 l -4.72608,-0.280122 1.23698,-20.869623 4.77287,0.282895 q 1.41939,0.08413 2.6286,0.281021 1.21015,0.181294 2.23762,0.53959 1.79442,0.622888 3.09687,1.623579 1.31804,1.001616 2.13222,2.31772 0.8307,1.301431 1.17406,2.902677 0.35989,1.586573 0.25264,3.395897 z m -2.68279,-0.159013 q 0.17843,-3.010342 -1.02083,-4.959715 -1.19926,-1.949372 -3.60186,-2.8744 -0.9183,-0.351824 -2.06605,-0.52942 -1.14775,-0.177596 -2.59833,-0.263575 l -1.91851,-0.113713 -0.96517,16.283922 1.9185,0.113713 q 1.45058,0.08598 2.61128,0.04521 1.1607,-0.04077 2.11412,-0.281655 2.49505,-0.634736 3.92081,-2.506781 1.42577,-1.872046 1.60604,-4.913583 z"
     style="font-style:normal;font-variant:normal;font-weight:normal;font-stretch:normal;font-size:32px;font-family:Corbel;-inkscape-font-specification:Corbel"
     id="path991" /><path
     d="m 296.56456,77.685015 -1.7858,8.47004 -2.49209,-0.525424 4.31299,-20.456524 5.30525,1.118541 q 1.34542,0.283665 2.25548,0.587318 0.92857,0.291588 1.66317,0.670029 2.01795,1.032262 2.85277,2.677376 0.83804,1.629824 0.39643,3.724401 -0.2611,1.2384 -0.86491,2.133078 -0.60382,0.894678 -1.4739,1.461753 -0.87008,0.567075 -1.97585,0.812993 -1.09048,0.249141 -2.35872,0.205309 l -0.0129,0.06115 4.83742,10.153894 -3.13422,-0.66081 -4.51322,-9.798107 z m 2.05334,-9.739018 -1.57949,7.491552 2.46151,0.518977 q 1.14666,0.24176 1.97309,0.336159 0.82643,0.0944 1.51047,0.03103 1.38336,-0.123516 2.27039,-0.846703 0.88702,-0.723187 1.18358,-2.129765 0.26193,-1.318067 -0.22787,-2.251698 -0.48658,-0.948919 -1.57439,-1.545547 -0.51495,-0.284222 -1.26327,-0.52184 -0.74833,-0.237617 -1.92557,-0.485824 z"
     style="font-style:normal;font-variant:normal;font-weight:normal;font-stretch:normal;font-size:32px;font-family:Corbel;-inkscape-font-specification:Corbel"
     id="path993" /><path
     d="m 316.88453,91.800595 6.5671,-19.848034 2.41796,0.800028 -6.5671,19.848034 z"
     style="font-style:normal;font-variant:normal;font-weight:normal;font-stretch:normal;font-size:32px;font-family:Corbel;-inkscape-font-specification:Corbel"
     id="path995" /><path
     d="m 344.25448,91.119131 q 0.82111,0.532945 1.35968,1.193813 0.55277,0.667403 0.80115,1.435465 0.26911,0.760406 0.19891,1.622591 -0.0637,0.847992 -0.49502,1.784693 -0.30718,0.667045 -0.84573,1.313552 -0.53202,0.632314 -1.32062,1.112066 -0.76787,0.472099 -1.78803,0.707589 -1.00597,0.24204 -2.28291,0.10126 -0.98226,-0.1083 -2.07059,-0.471863 -1.08834,-0.363566 -2.53597,-1.030207 l -4.91058,-2.261351 8.74476,-18.989482 4.74028,2.182922 q 0.65285,0.300642 1.1649,0.570848 0.53278,0.262549 0.95313,0.507733 0.43455,0.251719 0.78507,0.499145 0.35705,0.233234 0.65846,0.475245 0.78302,0.653021 1.31076,1.412114 0.54847,0.751437 0.79144,1.568612 0.24296,0.817175 0.17276,1.67936 -0.056,0.868721 -0.45469,1.73446 -0.32024,0.695429 -0.78466,1.25566 -0.45022,0.566768 -1.06758,0.936152 -0.60317,0.37592 -1.38113,0.53373 -0.76377,0.164345 -1.71764,0.06912 z m -3.09602,-2.578281 q 0.68123,0.313713 1.20411,0.485693 0.52942,0.157787 0.98563,0.213054 1.22782,0.135367 2.05676,-0.394619 0.84312,-0.52345 1.31369,-1.545305 0.48364,-1.050241 0.27989,-1.95257 -0.20375,-0.90233 -1.14624,-1.732005 -0.46742,-0.404473 -1.1509,-0.788028 -0.67695,-0.397747 -1.64203,-0.842174 l -2.59722,-1.196032 -2.82342,6.131133 z m -4.48048,0.465435 -3.03909,6.599484 2.79591,1.287532 q 0.99347,0.457499 1.88423,0.764486 0.89729,0.292795 1.58488,0.3686 0.75088,0.08776 1.35536,-0.02953 0.61102,-0.131477 1.06367,-0.404687 0.47339,-0.280866 0.79607,-0.682739 0.33687,-0.395337 0.55255,-0.863687 0.24836,-0.539313 0.3363,-1.066484 0.0945,-0.541365 -0.0336,-1.047618 -0.10738,-0.513909 -0.45921,-1.019972 -0.33764,-0.499527 -0.97537,-0.982428 -0.38002,-0.295418 -0.91392,-0.592888 -0.5197,-0.290933 -1.32867,-0.663468 z"
     style="font-style:normal;font-variant:normal;font-weight:normal;font-stretch:normal;font-size:32px;font-family:Corbel;-inkscape-font-specification:Corbel"
     id="path997" /><path
     d="m 367.6352,104.55098 q 0.73684,0.64445 1.1758,1.37529 0.45208,0.73932 0.58854,1.53493 0.15807,0.79098 -0.0342,1.63437 -0.18379,0.83029 -0.74415,1.69601 -0.39905,0.61649 -1.02418,1.17971 -0.61665,0.5501 -1.46553,0.91265 -0.82728,0.35793 -1.87058,0.44574 -1.03019,0.0963 -2.27406,-0.22491 -0.95683,-0.24708 -1.98229,-0.76194 -1.02546,-0.51486 -2.36339,-1.38087 l -4.53847,-2.93766 11.36006,-17.550502 4.38107,2.83577 q 0.60338,0.390556 1.07173,0.730932 0.48995,0.335749 0.87111,0.638301 0.39427,0.311041 0.70597,0.605865 0.3202,0.281707 0.58407,0.564176 0.68203,0.75788 1.09629,1.584396 0.43586,0.821889 0.55997,1.665337 0.1241,0.843447 -0.0682,1.686845 -0.17916,0.85189 -0.69707,1.65203 -0.41603,0.64273 -0.95549,1.13111 -0.52636,0.49687 -1.19003,0.77456 -0.65056,0.28619 -1.44306,0.3316 -0.77939,0.0539 -1.70998,-0.17621 z m -2.69728,-2.99293 q 0.62962,0.40754 1.12267,0.65223 0.50155,0.23158 0.94524,0.35125 1.19603,0.30885 2.09199,-0.0977 0.90908,-0.39803 1.52039,-1.34245 0.62828,-0.97066 0.55512,-1.89281 -0.0732,-0.92215 -0.8879,-1.877595 -0.40505,-0.46692 -1.02694,-0.943904 -0.61339,-0.490101 -1.50535,-1.067444 l -2.4004,-1.55373 -3.66783,5.666531 z m -4.50108,-0.17741 -3.94801,6.09939 2.58405,1.6726 q 0.91818,0.59432 1.75614,1.02504 0.84645,0.4176 1.51623,0.59056 0.73074,0.1938 1.34576,0.1638 0.62351,-0.0431 1.11046,-0.24908 0.50856,-0.21058 0.88519,-0.5624 0.38974,-0.34333 0.66992,-0.77619 0.32263,-0.49845 0.48476,-1.00772 0.17062,-0.52239 0.11591,-1.04173 -0.0331,-0.52396 -0.30927,-1.07497 -0.26305,-0.54253 -0.82551,-1.11133 -0.33407,-0.34653 -0.82017,-0.717 -0.47297,-0.36198 -1.22064,-0.84593 z"
     style="font-style:normal;font-variant:normal;font-weight:normal;font-stretch:normal;font-size:32px;font-family:Corbel;-inkscape-font-specification:Corbel"
     id="path999" /><path
     d="m 389.52416,108.38073 -12.13386,14.10951 7.73594,6.65274 -1.49763,1.74148 -9.66697,-8.31338 13.6315,-15.85098 z"
     style="font-style:normal;font-variant:normal;font-weight:normal;font-stretch:normal;font-size:32px;font-family:Corbel;-inkscape-font-specification:Corbel"
     id="path1001" /><path
     d="m 415.43681,134.15209 -1.18588,1.06478 -20.76157,2.3461 8.19459,9.12657 -1.70905,1.53453 -10.42853,-11.61458 1.18587,-1.06478 20.78245,-2.32284 -7.93361,-8.83592 1.70905,-1.53453 z"
     style="font-style:normal;font-variant:normal;font-weight:normal;font-stretch:normal;font-size:32px;font-family:Corbel;-inkscape-font-specification:Corbel"
     id="path1003" /></g><path
   fill-rule="evenodd"
   clip-rule="evenodd"
   d="M 261.69409,1.6631501e-5 C 406.28609,-0.05098337 523.57309,117.19702 523.56809,261.78802 c -0.006,144.597 -117.29,261.836 -261.881,261.78 C 117.09009,523.51102 -0.11691248,406.17402 8.7518823e-5,261.59202 0.11808752,117.13102 117.24309,0.05201663 261.69409,1.6631501e-5 Z"
   id="path1007" /><path
   fill-rule="evenodd"
   clip-rule="evenodd"
   fill="#d6d4b6"
   d="m 261.78909,508.39202 c -135.997,0.004 -246.495002,-110.446 -246.615002,-246.51 -0.12,-136.06 110.757002,-246.897003 246.794002,-246.705003 136.09,0.193 246.533,110.756003 246.427,246.697003 -0.107,136.055 -110.604,246.513 -246.606,246.518 z"
   id="path1009" /><path
   fill-rule="evenodd"
   clip-rule="evenodd"
   d="m 491.66709,261.90202 c -0.204,127.204 -103.397,230.209 -230.188,229.765 -127.202,-0.445 -229.781002,-103.213 -229.578002,-230.001 0.205,-127.202 103.401002,-230.208003 230.188002,-229.765003 127.204,0.446 229.783,103.214003 229.578,230.001003 z"
   id="path1011" /><path
   fill-rule="evenodd"
   clip-rule="evenodd"
   fill="#2274c9"
   d="m 34.975088,261.76002 c 0.028,-125.542 101.578002,-226.986003 227.021002,-226.784003 125.48,0.202 226.625,101.451003 226.598,226.832003 -0.028,125.545 -101.573,226.985 -227.02,226.785 -125.478,-0.2 -226.627002,-101.452 -226.599002,-226.833 z"
   id="path1013" /><path
   style="fill:#000000"
   fill-rule="evenodd"
   clip-rule="evenodd"
   fill="#050505"
   d="m 261.81309,83.181017 c 98.765,0.011 178.55,79.779003 178.576,178.538003 0.026,98.933 -79.861,178.752 -178.821,178.669 -98.733,-0.084 -178.437002,-79.938 -178.389002,-178.726 0.048,-98.749 79.860002,-178.492003 178.634002,-178.481003 z"
   id="path1015" /><path
   fill-rule="evenodd"
   clip-rule="evenodd"
   fill="#fcfcfd"
   d="m 240.82809,462.51802 c 0.06,5.89 -4.713,10.691 -10.649,10.711 -6.066,0.02 -11.146,-4.881 -11.148,-10.755 -0.001,-5.736 4.609,-10.304 10.508,-10.409 6.282,-0.112 11.227,4.467 11.289,10.453 z"
   id="path1017" /><path
   fill-rule="evenodd"
   clip-rule="evenodd"
   fill="#fbfcfd"
   d="m 283.82009,463.28802 c 3.23,1.198 5.074,3.096 4.532,6.325 -0.581,3.467 -3.272,4.314 -6.303,4.75 -7.138,1.027 -7.124,1.066 -7.629,-6.181 -0.26,-3.728 -0.418,-7.471 -0.888,-11.174 -0.258,-2.03 0.37,-2.665 2.293,-2.653 1.486,0.009 2.977,-0.389 4.461,-0.361 2.209,0.04 4.334,0.662 5.24,2.898 0.892,2.196 0.855,4.418 -1.706,6.396 z"
   id="path1019" /><path
   fill-rule="evenodd"
   clip-rule="evenodd"
   fill="#fcfdfd"
   d="m 201.42609,466.06302 c -6.146,-0.079 -11.012,-4.924 -10.938,-10.887 0.071,-5.716 4.788,-10.303 10.62,-10.328 5.984,-0.025 11.136,4.956 11.156,10.791 0.022,5.944 -4.72,10.504 -10.838,10.424 z"
   id="path1021" /><path
   fill-rule="evenodd"
   clip-rule="evenodd"
   fill="#fbfcfd"
   d="m 315.82309,467.56902 c -2.331,2.186 -3.565,0.347 -4.311,-1.254 -1.783,-3.828 -4.587,-2.03 -7.275,-1.764 -2.955,0.293 -3.96,1.972 -4.159,4.611 -0.071,0.952 0.095,2.098 -0.971,2.657 -0.519,0.271 -1.169,0.371 -1.757,0.36 -0.115,-0.002 -0.376,-0.896 -0.298,-1.328 1.148,-6.359 2.233,-12.732 3.587,-19.049 0.448,-2.093 1.894,-2.104 3.155,-0.415 4.02,5.38 8.014,10.776 12.029,16.182 z"
   id="path1023" /><path
   fill-rule="evenodd"
   clip-rule="evenodd"
   fill="#f7fafc"
   d="m 255.16109,466.19502 c 0,-1.122 -0.015,-2.245 0.002,-3.368 0.078,-5.006 0.082,-5.007 -4.87,-5.395 -1.084,-0.085 -2.465,0.184 -2.433,-1.521 0.035,-1.825 1.524,-1.288 2.522,-1.28 4.242,0.033 8.483,0.105 12.722,0.263 0.997,0.037 2.516,-0.317 2.552,1.405 0.04,1.879 -1.508,1.231 -2.474,1.272 -4.987,0.207 -4.992,0.182 -5.06,5.276 -0.047,3.493 -0.08,6.985 -0.124,10.479 -0.013,1.032 -0.026,2.036 -1.508,2.025 -1.487,-0.011 -1.466,-1.013 -1.465,-2.047 0.003,-2.37 0.001,-4.741 0.001,-7.111 0.045,0.002 0.09,0.002 0.135,0.002 z"
   id="path1025" /><path
   fill-rule="evenodd"
   clip-rule="evenodd"
   fill="#fafbfd"
   d="m 183.22609,447.00502 c -0.248,1.863 -0.858,2.145 -2.139,1.665 -2.063,-0.773 -4.131,-2.99 -6.098,-2.145 -1.909,0.821 -2.098,3.77 -3.151,5.728 -0.483,0.899 -0.783,1.937 -2.164,1.257 -1.266,-0.623 -0.968,-1.48 -0.502,-2.483 2.31,-4.98 4.628,-9.959 6.833,-14.986 0.578,-1.317 1.122,-1.723 2.489,-1.045 2.458,1.219 4.996,2.273 7.476,3.448 0.613,0.291 1.445,0.515 1.004,1.617 -0.441,1.101 -1.111,1.208 -2.057,0.779 -1.137,-0.516 -2.34,-0.923 -3.397,-1.568 -2.022,-1.235 -3.327,-1.433 -4.473,1.278 -0.979,2.315 -0.668,3.325 1.639,4.15 1.658,0.593 3.434,1.193 4.54,2.305 z"
   id="path1027" /><path
   fill-rule="evenodd"
   clip-rule="evenodd"
   fill="#f9fbfd"
   d="m 339.08209,438.11802 c 1.021,-0.067 1.132,0.956 1.47,1.69 1.712,3.726 3.606,7.387 5.016,11.224 1.022,2.785 2.297,3.042 4.604,1.607 1.255,-0.78 2.693,-1.272 4.066,-1.851 0.755,-0.316 1.57,-0.958 2.137,0.353 0.459,1.063 0.085,1.57 -0.887,1.994 -2.848,1.238 -5.714,2.449 -8.481,3.852 -1.531,0.775 -1.943,-0.054 -2.439,-1.156 -2.241,-4.986 -4.468,-9.979 -6.777,-14.932 -0.679,-1.451 -0.512,-2.339 1.291,-2.781 z"
   id="path1029" /><path
   fill-rule="evenodd"
   clip-rule="evenodd"
   fill="#fafbfd"
   d="m 325.80009,465.02602 c -1.271,0.162 -1.514,-0.656 -1.798,-1.531 -1.689,-5.201 -3.432,-10.387 -5.103,-15.595 -0.288,-0.896 -0.7,-1.938 0.772,-2.42 1.471,-0.482 1.708,0.566 2.019,1.486 1.032,3.063 2.021,6.141 3.025,9.213 1.888,5.77 1.888,5.77 7.486,3.93 0.827,-0.271 1.659,-0.53 2.485,-0.805 0.683,-0.227 1.162,-0.11 1.457,0.639 0.309,0.786 0.399,1.532 -0.519,1.847 -3.29,1.126 -6.606,2.183 -9.824,3.236 z"
   id="path1031" /><path
   fill-rule="evenodd"
   clip-rule="evenodd"
   fill="#2374c9"
   d="m 229.68209,470.32702 c -4.307,-0.146 -7.797,-3.893 -7.566,-8.12 0.222,-4.077 3.862,-7.533 7.904,-7.503 4.206,0.031 7.811,3.776 7.735,8.035 -0.077,4.272 -3.762,7.736 -8.073,7.588 z"
   id="path1037" /><path
   fill-rule="evenodd"
   clip-rule="evenodd"
   fill="#2374ca"
   d="m 277.34809,467.94602 c -0.868,-2.718 1.361,-2.308 3.006,-2.363 2.251,-0.077 4.853,-0.316 4.805,3.036 -0.046,3.224 -2.705,2.855 -4.881,3.249 -3.427,0.621 -2.71,-1.821 -2.93,-3.922 z"
   id="path1039" /><path
   fill-rule="evenodd"
   clip-rule="evenodd"
   fill="#2475ca"
   d="m 279.07609,456.77702 c 2.076,-0.101 3.751,0.188 3.814,2.578 0.076,2.881 -1.948,3.351 -4.203,3.508 -2.914,0.202 -1.661,-2.084 -1.971,-3.371 -0.504,-2.09 0.403,-3.027 2.36,-2.715 z"
   id="path1041" /><path
   fill-rule="evenodd"
   clip-rule="evenodd"
   fill="#2374c9"
   d="m 201.51709,447.76202 c 4.27,0.065 7.815,3.775 7.668,8.026 -0.14,4.038 -3.82,7.601 -7.828,7.577 -4.281,-0.024 -7.864,-3.663 -7.818,-7.938 0.046,-4.363 3.554,-7.733 7.978,-7.665 z"
   id="path1043" /><path
   fill-rule="evenodd"
   clip-rule="evenodd"
   fill="#317dcd"
   d="m 307.40809,461.01702 c -2.072,0.616 -4.522,2.084 -5.428,0.951 -1.339,-1.675 0.568,-4.086 0.48,-6.822 2.322,1.689 3.331,3.751 4.948,5.871 z"
   id="path1045" /><g
   style="font-style:normal;font-weight:normal;font-size:315.382px;line-height:1.25;font-family:sans-serif;fill:#ffffff;fill-opacity:1;stroke:none;stroke-width:7.88453"
   id="text198"
   transform="matrix(0.9662467,0,0,1.0349324,-131.3268,-149.75298)"
   aria-label="D"><path
     sodipodi:nodetypes="ccscscsccssscsccscc"
     id="path1093"
     style="font-style:normal;font-variant:normal;font-weight:normal;font-stretch:normal;font-family:'Humnst777 BT';-inkscape-font-specification:'Humnst777 BT';fill:#ffffff;stroke-width:7.88453"
     d="m 374.51175,315.40963 v 168.77865 h 24.94721 c 27.30846,0 48.55978,-7.39177 63.75397,-22.1753 15.29685,-14.88619 22.94527,-35.7782 22.94527,-62.67601 0,-27.41113 -7.34043,-48.2518 -22.0213,-62.52202 -14.5782,-14.27021 -36.03485,-21.40532 -64.36995,-21.40532 z m -30.64503,-24.48522 h 51.12638 c 40.9627,0 71.76172,9.18838 92.39706,27.56513 20.63535,18.37675 30.95302,45.83921 30.95302,82.38738 0,34.90556 -10.72833,61.80337 -32.18498,80.69344 -21.45665,18.7874 -52.05035,28.1811 -91.78108,28.1811 h -25.2552 -19.37523 c -5.44893,-0.0247 -5.88707,-0.79447 -5.8605,-3.859 5.4e-4,-0.062 -0.0129,-0.12437 -0.0195,-0.188 z" /></g><path
   fill-rule="evenodd"
   clip-rule="evenodd"
   fill="#fefefe"
   d="m 338.9689,302.19889 c -28.25792,33.10239 -37.57258,45.97142 -63.17074,77.66521 2.525,2.097 3.60193,2.61092 6.13493,4.71492 -6.826,3.063 -13.397,6.013 -20.717,9.299 1.465,-7.667 2.822,-14.768 4.227,-22.117 2.26666,1.68936 3.869,2.97067 5.698,4.32767 9.52175,-13.89236 17.17673,-26.96023 30.129,-45.93967 l -102.839,2 c 30.05,-40.203 59.57,-79.696 89.636,-119.919 h -89.97 c 3.671,-6.148 7.019,-11.753 10.365,-17.358 0.579,-0.971 1.544,-0.644 2.361,-0.645 47.873,-0.01 85.747,-0.003 133.619,0.013 0.207,0 0.413,0.17 0.952,0.407 -26.735,36.154 -53.416,72.234 -80.495,108.852 z"
   id="path1047"
   style="stroke:#000000;stroke-width:3.1;stroke-linecap:round;stroke-linejoin:round;stroke-miterlimit:4;stroke-dasharray:none;stroke-opacity:1;paint-order:normal"
   sodipodi:nodetypes="ccccccccccccsccc" /><g
   style="font-style:normal;font-weight:normal;font-size:32px;line-height:1.25;font-family:sans-serif;fill:#ffffff;fill-opacity:1;stroke:none"
   id="g1063"
   transform="rotate(-26.227326,235.24176,253.34269)"
   aria-label="D R I B B L Z"><path
     id="path1049"
     style="font-style:normal;font-variant:normal;font-weight:normal;font-stretch:normal;font-size:32px;font-family:Corbel;-inkscape-font-specification:Corbel"
     d="m 282.00929,73.492836 q -0.10816,1.824923 -0.65572,3.404668 -0.54755,1.579745 -1.54454,2.819802 -0.98047,1.225385 -2.40854,2.079887 -1.41246,0.855426 -3.26789,1.261982 -1.06261,0.234413 -2.28662,0.287084 -1.22308,0.03707 -2.64247,-0.04706 l -4.72608,-0.280122 1.23698,-20.869623 4.77287,0.282895 q 1.41939,0.08413 2.6286,0.281021 1.21015,0.181294 2.23762,0.53959 1.79442,0.622888 3.09687,1.623579 1.31804,1.001616 2.13222,2.31772 0.8307,1.301431 1.17406,2.902677 0.35989,1.586573 0.25264,3.395897 z m -2.68279,-0.159013 q 0.17843,-3.010342 -1.02083,-4.959715 -1.19926,-1.949372 -3.60186,-2.8744 -0.9183,-0.351824 -2.06605,-0.52942 -1.14775,-0.177596 -2.59833,-0.263575 l -1.91851,-0.113713 -0.96517,16.283922 1.9185,0.113713 q 1.45058,0.08598 2.61128,0.04521 1.1607,-0.04077 2.11412,-0.281655 2.49505,-0.634736 3.92081,-2.506781 1.42577,-1.872046 1.60604,-4.913583 z" /><path
     id="path1051"
     style="font-style:normal;font-variant:normal;font-weight:normal;font-stretch:normal;font-size:32px;font-family:Corbel;-inkscape-font-specification:Corbel"
     d="m 296.56456,77.685015 -1.7858,8.47004 -2.49209,-0.525424 4.31299,-20.456524 5.30525,1.118541 q 1.34542,0.283665 2.25548,0.587318 0.92857,0.291588 1.66317,0.670029 2.01795,1.032262 2.85277,2.677376 0.83804,1.629824 0.39643,3.724401 -0.2611,1.2384 -0.86491,2.133078 -0.60382,0.894678 -1.4739,1.461753 -0.87008,0.567075 -1.97585,0.812993 -1.09048,0.249141 -2.35872,0.205309 l -0.0129,0.06115 4.83742,10.153894 -3.13422,-0.66081 -4.51322,-9.798107 z m 2.05334,-9.739018 -1.57949,7.491552 2.46151,0.518977 q 1.14666,0.24176 1.97309,0.336159 0.82643,0.0944 1.51047,0.03103 1.38336,-0.123516 2.27039,-0.846703 0.88702,-0.723187 1.18358,-2.129765 0.26193,-1.318067 -0.22787,-2.251698 -0.48658,-0.948919 -1.57439,-1.545547 -0.51495,-0.284222 -1.26327,-0.52184 -0.74833,-0.237617 -1.92557,-0.485824 z" /><path
     id="path1053"
     style="font-style:normal;font-variant:normal;font-weight:normal;font-stretch:normal;font-size:32px;font-family:Corbel;-inkscape-font-specification:Corbel"
     d="m 316.88453,91.800595 6.5671,-19.848034 2.41796,0.800028 -6.5671,19.848034 z" /><path
     id="path1055"
     style="font-style:normal;font-variant:normal;font-weight:normal;font-stretch:normal;font-size:32px;font-family:Corbel;-inkscape-font-specification:Corbel"
     d="m 344.25448,91.119131 q 0.82111,0.532945 1.35968,1.193813 0.55277,0.667403 0.80115,1.435465 0.26911,0.760406 0.19891,1.622591 -0.0637,0.847992 -0.49502,1.784693 -0.30718,0.667045 -0.84573,1.313552 -0.53202,0.632314 -1.32062,1.112066 -0.76787,0.472099 -1.78803,0.707589 -1.00597,0.24204 -2.28291,0.10126 -0.98226,-0.1083 -2.07059,-0.471863 -1.08834,-0.363566 -2.53597,-1.030207 l -4.91058,-2.261351 8.74476,-18.989482 4.74028,2.182922 q 0.65285,0.300642 1.1649,0.570848 0.53278,0.262549 0.95313,0.507733 0.43455,0.251719 0.78507,0.499145 0.35705,0.233234 0.65846,0.475245 0.78302,0.653021 1.31076,1.412114 0.54847,0.751437 0.79144,1.568612 0.24296,0.817175 0.17276,1.67936 -0.056,0.868721 -0.45469,1.73446 -0.32024,0.695429 -0.78466,1.25566 -0.45022,0.566768 -1.06758,0.936152 -0.60317,0.37592 -1.38113,0.53373 -0.76377,0.164345 -1.71764,0.06912 z m -3.09602,-2.578281 q 0.68123,0.313713 1.20411,0.485693 0.52942,0.157787 0.98563,0.213054 1.22782,0.135367 2.05676,-0.394619 0.84312,-0.52345 1.31369,-1.545305 0.48364,-1.050241 0.27989,-1.95257 -0.20375,-0.90233 -1.14624,-1.732005 -0.46742,-0.404473 -1.1509,-0.788028 -0.67695,-0.397747 -1.64203,-0.842174 l -2.59722,-1.196032 -2.82342,6.131133 z m -4.48048,0.465435 -3.03909,6.599484 2.79591,1.287532 q 0.99347,0.457499 1.88423,0.764486 0.89729,0.292795 1.58488,0.3686 0.75088,0.08776 1.35536,-0.02953 0.61102,-0.131477 1.06367,-0.404687 0.47339,-0.280866 0.79607,-0.682739 0.33687,-0.395337 0.55255,-0.863687 0.24836,-0.539313 0.3363,-1.066484 0.0945,-0.541365 -0.0336,-1.047618 -0.10738,-0.513909 -0.45921,-1.019972 -0.33764,-0.499527 -0.97537,-0.982428 -0.38002,-0.295418 -0.91392,-0.592888 -0.5197,-0.290933 -1.32867,-0.663468 z" /><path
     id="path1057"
     style="font-style:normal;font-variant:normal;font-weight:normal;font-stretch:normal;font-size:32px;font-family:Corbel;-inkscape-font-specification:Corbel"
     d="m 367.6352,104.55098 q 0.73684,0.64445 1.1758,1.37529 0.45208,0.73932 0.58854,1.53493 0.15807,0.79098 -0.0342,1.63437 -0.18379,0.83029 -0.74415,1.69601 -0.39905,0.61649 -1.02418,1.17971 -0.61665,0.5501 -1.46553,0.91265 -0.82728,0.35793 -1.87058,0.44574 -1.03019,0.0963 -2.27406,-0.22491 -0.95683,-0.24708 -1.98229,-0.76194 -1.02546,-0.51486 -2.36339,-1.38087 l -4.53847,-2.93766 11.36006,-17.550502 4.38107,2.83577 q 0.60338,0.390556 1.07173,0.730932 0.48995,0.335749 0.87111,0.638301 0.39427,0.311041 0.70597,0.605865 0.3202,0.281707 0.58407,0.564176 0.68203,0.75788 1.09629,1.584396 0.43586,0.821889 0.55997,1.665337 0.1241,0.843447 -0.0682,1.686845 -0.17916,0.85189 -0.69707,1.65203 -0.41603,0.64273 -0.95549,1.13111 -0.52636,0.49687 -1.19003,0.77456 -0.65056,0.28619 -1.44306,0.3316 -0.77939,0.0539 -1.70998,-0.17621 z m -2.69728,-2.99293 q 0.62962,0.40754 1.12267,0.65223 0.50155,0.23158 0.94524,0.35125 1.19603,0.30885 2.09199,-0.0977 0.90908,-0.39803 1.52039,-1.34245 0.62828,-0.97066 0.55512,-1.89281 -0.0732,-0.92215 -0.8879,-1.877595 -0.40505,-0.46692 -1.02694,-0.943904 -0.61339,-0.490101 -1.50535,-1.067444 l -2.4004,-1.55373 -3.66783,5.666531 z m -4.50108,-0.17741 -3.94801,6.09939 2.58405,1.6726 q 0.91818,0.59432 1.75614,1.02504 0.84645,0.4176 1.51623,0.59056 0.73074,0.1938 1.34576,0.1638 0.62351,-0.0431 1.11046,-0.24908 0.50856,-0.21058 0.88519,-0.5624 0.38974,-0.34333 0.66992,-0.77619 0.32263,-0.49845 0.48476,-1.00772 0.17062,-0.52239 0.11591,-1.04173 -0.0331,-0.52396 -0.30927,-1.07497 -0.26305,-0.54253 -0.82551,-1.11133 -0.33407,-0.34653 -0.82017,-0.717 -0.47297,-0.36198 -1.22064,-0.84593 z" /><path
     id="path1059"
     style="font-style:normal;font-variant:normal;font-weight:normal;font-stretch:normal;font-size:32px;font-family:Corbel;-inkscape-font-specification:Corbel"
     d="m 389.52416,108.38073 -12.13386,14.10951 7.73594,6.65274 -1.49763,1.74148 -9.66697,-8.31338 13.6315,-15.85098 z" /><path
     id="path1061"
     style="font-style:normal;font-variant:normal;font-weight:normal;font-stretch:normal;font-size:32px;font-family:Corbel;-inkscape-font-specification:Corbel"
     d="m 415.43681,134.15209 -1.18588,1.06478 -20.76157,2.3461 8.19459,9.12657 -1.70905,1.53453 -10.42853,-11.61458 1.18587,-1.06478 20.78245,-2.32284 -7.93361,-8.83592 1.70905,-1.53453 z" /></g><rect
   y="349.63324"
   x="228.59343"
   height="2.7716434"
   width="3.7220235"
   id="rect1149"
   style="fill:#ffffff;fill-opacity:1;stroke:none;stroke-width:0.0777332;stroke-miterlimit:4;stroke-dasharray:none" /><g
   transform="translate(-131.3268,-149.75298)"
   id="g1163"><path
     style="fill:#000000;stroke:#000000;stroke-width:0.1;stroke-linecap:butt;stroke-linejoin:miter;stroke-miterlimit:4;stroke-dasharray:none;stroke-opacity:1"
     d="m 361.97842,340.21444 c -0.11214,1.47314 -0.75626,2.05452 -1.84942,2.28276 l 1.728,0.0306 c -0.005,-0.76461 0.12652,-1.54875 0.12142,-2.31336 z"
     id="path1098"
     sodipodi:nodetypes="cccc" /><path
     sodipodi:nodetypes="cccc"
     id="path1098-3"
     d="m 361.96947,365.75091 c -0.11214,-1.47314 -0.75626,-2.05452 -1.84942,-2.28276 l 1.728,-0.0306 c 8.99702,-4.91712 24.94194,2.89619 0.12142,2.31336 z"
     style="fill:#000000;stroke:#000000;stroke-width:0.1;stroke-linecap:butt;stroke-linejoin:miter;stroke-miterlimit:4;stroke-dasharray:none;stroke-opacity:1" /><path
     style="fill:#000000;stroke:#000000;stroke-width:0.1;stroke-linecap:butt;stroke-linejoin:miter;stroke-miterlimit:4;stroke-dasharray:none;stroke-opacity:1"
     d="m 332.15998,365.75091 c 0.11214,-1.47314 0.75626,-2.05452 1.84942,-2.28276 l -1.728,-0.0306 c -5.5575,-6.67289 -8.18902,2.205 -0.12142,2.31336 z"
     id="path1115"
     sodipodi:nodetypes="cccc" /><path
     style="fill:#000000;stroke:#000000;stroke-width:0.1;stroke-linecap:butt;stroke-linejoin:miter;stroke-miterlimit:4;stroke-dasharray:none;stroke-opacity:1"
     d="m 361.92819,435.54463 c -0.0344,0.57022 -0.14923,0.95071 -0.39775,1.37002 l 0.51376,-0.11047 0.64634,-0.34803 -0.25964,-0.39223 z"
     id="path1119"
     sodipodi:nodetypes="cccccc" /><path
     sodipodi:nodetypes="cccc"
     id="path1115-8"
     d="m 332.19277,485.53792 c 0.11214,-1.47314 0.75626,-2.05452 1.84942,-2.28276 l -1.728,-0.0306 c -5.5575,-6.67289 -8.18902,2.205 -0.12142,2.31336 z"
     style="fill:#000000;stroke:#000000;stroke-width:0.1;stroke-linecap:butt;stroke-linejoin:miter;stroke-miterlimit:4;stroke-dasharray:none;stroke-opacity:1" /><path
     style="fill:#000000;stroke:#000000;stroke-width:0.1;stroke-linecap:butt;stroke-linejoin:miter;stroke-miterlimit:4;stroke-dasharray:none;stroke-opacity:1"
     d="m 361.95956,485.02968 c -0.11214,-1.47314 -0.75626,-2.05452 -1.84942,-2.28276 l 1.728,-0.0306 c 5.5575,-6.67289 8.18902,2.205 0.12142,2.31336 z"
     id="path1136"
     sodipodi:nodetypes="cccc" /><path
     sodipodi:nodetypes="cccc"
     id="path1147"
     d="m 367.01295,496.24802 c 0.11198,1.47111 0.75521,2.05168 1.84685,2.27961 l -1.7256,0.0306 c -5.5498,6.66367 -8.17766,-2.20196 -0.12125,-2.31017 z"
     style="fill:#000000;stroke:#000000;stroke-width:0.0998616;stroke-linecap:butt;stroke-linejoin:miter;stroke-miterlimit:4;stroke-dasharray:none;stroke-opacity:1" /><rect
     style="fill:#000000;fill-opacity:1;stroke:none;stroke-width:0.1;stroke-miterlimit:4;stroke-dasharray:none"
     id="rect1151"
     width="4.40625"
     height="0.9375"
     x="363.45312"
     y="500.15625" /></g><g
   transform="translate(-131.3268,-149.75298)"
   id="g1193"><g
     id="g1185"><path
       style="fill:#000000;stroke:#000000;stroke-width:0.1;stroke-linecap:butt;stroke-linejoin:miter;stroke-miterlimit:4;stroke-dasharray:none;stroke-opacity:1"
       d="m 332.20116,303.2989 c 0.11214,-1.47314 0.75626,-2.05452 1.84942,-2.28276 l -1.728,-0.0306 c -5.5575,-6.67289 -8.18902,2.205 -0.12142,2.31336 z"
       id="path1153"
       sodipodi:nodetypes="cccc" /><g
       id="g1178"><path
         style="fill:#000000;stroke:#000000;stroke-width:0.1;stroke-linecap:butt;stroke-linejoin:miter;stroke-miterlimit:4;stroke-dasharray:none;stroke-opacity:1"
         d="m 462.93344,365.54962 c 0,0 -1.88682,2.10798 -0.66868,4.63204 0.42676,0.88427 -2.48016,-0.34132 -2.48016,-0.34132"
         id="path1167"
         sodipodi:nodetypes="csc" /><path
         style="fill:#000000;stroke:#000000;stroke-width:0.00908024;stroke-linecap:butt;stroke-linejoin:miter;stroke-miterlimit:4;stroke-dasharray:none;stroke-opacity:1"
         d="m 464.73437,448.76987 c 0,0 -0.85937,1.76544 1.10938,1.73363 1.96875,-0.0318 0.6875,1.81315 0.6875,1.81315 l -5.10938,-0.668 0.0937,-2.95831 1.39063,-1.04972 z"
         id="path1171" /><path
         style="fill:#000000;stroke:#000000;stroke-width:0.00958634;stroke-linecap:butt;stroke-linejoin:miter;stroke-miterlimit:4;stroke-dasharray:none;stroke-opacity:1"
         d="m 417.76809,496.50429 c 0,0 2.05362,-0.41434 0.89846,1.45021 -1.15516,1.86455 0.96263,2.00267 0.96263,2.00267 l 4.62065,-8.90842 c 0,0 -11.55162,-5.04119 -10.71733,0.13812 0.83428,5.1793 4.23559,5.31742 4.23559,5.31742 z"
         id="path1173" /></g></g></g></svg>
